<svg width="32" height="25" viewBox="0 0 32 25" fill="none" xmlns="http://www.w3.org/2000/svg">
  <path d="M29.3304 17.8442V22.0559C29.3304 22.6934 29.3304 23.0123 29.2321 23.2638C29.101 23.599 28.8495 23.8655 28.5331 24.0044C28.2957 24.1085 27.9947 24.1085 27.3929 24.1085C26.7911 24.1085 26.4902 24.1085 26.2528 24.0044C25.9363 23.8655 25.6848 23.599 25.5537 23.2638C25.4554 23.0123 25.4554 22.6934 25.4554 22.0559C25.4554 21.4184 25.4554 21.0995 25.3571 20.848C25.226 20.5128 24.9745 20.2463 24.6581 20.1074C24.4207 20.0033 24.1197 20.0033 23.5179 20.0033H9.30957C8.70773 20.0033 8.40681 20.0033 8.16944 20.1074C7.85295 20.2463 7.60148 20.5128 7.47039 20.848C7.37207 21.0995 7.37207 21.4184 7.37207 22.0559C7.37207 22.6934 7.37207 23.0123 7.27375 23.2638C7.14266 23.599 6.8912 23.8655 6.5747 24.0044C6.33733 24.1085 6.03641 24.1085 5.43457 24.1085C4.83273 24.1085 4.53181 24.1085 4.29444 24.0044C3.97795 23.8655 3.72648 23.599 3.59539 23.2638C3.49707 23.0123 3.49707 22.6934 3.49707 22.0559V17.8442C3.49707 16.1992 3.49707 15.3765 3.71876 14.6009C3.94045 13.8251 4.37115 13.1406 5.23255 11.7718L6.0804 10.4245L7.32239 7.26667C8.28562 4.81759 8.76724 3.59305 9.74344 2.90358C10.7196 2.21411 11.9719 2.21411 14.4762 2.21411H18.3512C20.8557 2.21411 22.1078 2.21411 23.084 2.90358C24.0603 3.59305 24.5418 4.81759 25.5051 7.26667L26.7471 10.4245L27.5949 11.7718C28.4563 13.1406 28.887 13.8251 29.1088 14.6009C29.3304 15.3765 29.3304 16.1992 29.3304 17.8442Z" stroke="#1C1C1F" stroke-width="1.5" stroke-linecap="round" stroke-linejoin="round" />
  <path d="M3.49707 8.37183L6.0804 10.4244L8.35521 11.0269C8.56012 11.0811 8.77055 11.1086 8.98176 11.1086H23.8457C24.0569 11.1086 24.2673 11.0811 24.4723 11.0269L26.7471 10.4244L29.3304 8.37183" stroke="#1C1C1F" stroke-width="1.5" stroke-linecap="round" stroke-linejoin="round" />
  <path d="M24.1655 15.8979V15.9128" stroke="#1C1C1F" stroke-width="3" stroke-linecap="round" stroke-linejoin="round" />
  <path d="M8.66553 15.8979V15.9128" stroke="#1C1C1F" stroke-width="3" stroke-linecap="round" stroke-linejoin="round" />
</svg>