<svg width="40" height="41" viewBox="0 0 40 41" fill="none" xmlns="http://www.w3.org/2000/svg">
  <path d="M37.5 5.5C38.163 5.5 38.7989 5.76339 39.2678 6.23223C39.7366 6.70107 40 7.33696 40 8V33C40 33.663 39.7366 34.2989 39.2678 34.7678C38.7989 35.2366 38.163 35.5 37.5 35.5H2.5C1.83696 35.5 1.20107 35.2366 0.732233 34.7678C0.263392 34.2989 0 33.663 0 33V8C0 7.33696 0.263392 6.70107 0.732233 6.23223C1.20107 5.76339 1.83696 5.5 2.5 5.5H37.5ZM37.5 9.7675L21.7875 25.505C21.5555 25.7393 21.2794 25.9253 20.9751 26.0525C20.6709 26.1796 20.3445 26.2453 20.0148 26.2457C19.6851 26.2462 19.3585 26.1814 19.0539 26.0552C18.7493 25.9289 18.4727 25.7436 18.24 25.51L2.5 9.7675V31.23L10.365 23.365C10.4812 23.2488 10.6192 23.1566 10.771 23.0937C10.9229 23.0308 11.0856 22.9984 11.25 22.9984C11.4144 22.9984 11.5771 23.0308 11.729 23.0937C11.8808 23.1566 12.0188 23.2488 12.135 23.365C12.2512 23.4812 12.3434 23.6192 12.4063 23.771C12.4692 23.9229 12.5016 24.0856 12.5016 24.25C12.5016 24.4144 12.4692 24.5771 12.4063 24.729C12.3434 24.8808 12.2512 25.0188 12.135 25.135L4.265 33H35.7325L27.865 25.135C27.6303 24.9003 27.4984 24.5819 27.4984 24.25C27.4984 23.9181 27.6303 23.5997 27.865 23.365C28.0997 23.1303 28.4181 22.9984 28.75 22.9984C29.0819 22.9984 29.4003 23.1303 29.635 23.365L37.5 31.2325V9.7675ZM35.73 8H4.2675L20.0125 23.745L35.73 8Z" fill="#3233F3" />
</svg>