<svg xmlns="http://www.w3.org/2000/svg" version="1.1" xmlns:xlink="http://www.w3.org/1999/xlink" width="512" height="512" x="0" y="0" viewBox="0 0 512 512" style="enable-background:new 0 0 512 512" xml:space="preserve" class=""><g><linearGradient id="g" x1="201.072" x2="243.666" y1="93.106" y2="135.7" gradientUnits="userSpaceOnUse"><stop offset="0" stop-color="#f5fbff"></stop><stop offset="1" stop-color="#dbd5ef"></stop></linearGradient><linearGradient id="a"><stop offset="0" stop-color="#dbd5ef" stop-opacity="0"></stop><stop offset=".285" stop-color="#d9d2ee" stop-opacity=".285"></stop><stop offset=".474" stop-color="#d4c9e9" stop-opacity=".474"></stop><stop offset=".635" stop-color="#cbbae2" stop-opacity=".635"></stop><stop offset=".779" stop-color="#bfa5d7" stop-opacity=".78"></stop><stop offset=".913" stop-color="#af8aca" stop-opacity=".913"></stop><stop offset="1" stop-color="#a274bf"></stop></linearGradient><linearGradient xlink:href="#a" id="h" x1="543.714" x2="543.714" y1="-456.594" y2="-409.758" gradientTransform="rotate(-90 668.644 -7.376)" gradientUnits="userSpaceOnUse"></linearGradient><linearGradient xlink:href="#a" id="i" x1="547.307" x2="525.95" y1="-450.5" y2="-450.5" gradientTransform="rotate(-90 668.644 -7.376)" gradientUnits="userSpaceOnUse"></linearGradient><linearGradient xlink:href="#a" id="j" x1="231.715" x2="210.954" y1="110.09" y2="135.098" gradientUnits="userSpaceOnUse"></linearGradient><linearGradient id="k" x1="273.115" x2="325.566" y1="88.766" y2="141.217" gradientUnits="userSpaceOnUse"><stop offset="0" stop-color="#b3dafe"></stop><stop offset="1" stop-color="#0182fc"></stop></linearGradient><linearGradient id="b"><stop offset="0" stop-color="#314dc9" stop-opacity="0"></stop><stop offset=".276" stop-color="#304bc4" stop-opacity=".276"></stop><stop offset=".563" stop-color="#2b45b8" stop-opacity=".563"></stop><stop offset=".854" stop-color="#243ba3" stop-opacity=".854"></stop><stop offset="1" stop-color="#1f3596"></stop></linearGradient><linearGradient xlink:href="#b" id="l" x1="543.714" x2="543.714" y1="-353.555" y2="-336.138" gradientTransform="rotate(-90 668.644 -7.376)" gradientUnits="userSpaceOnUse"></linearGradient><linearGradient xlink:href="#b" id="m" x1="542.411" x2="523.625" y1="-374.118" y2="-374.118" gradientTransform="rotate(-90 668.644 -7.376)" gradientUnits="userSpaceOnUse"></linearGradient><linearGradient id="n" x1="360.257" x2="395.881" y1="99.526" y2="135.151" gradientUnits="userSpaceOnUse"><stop offset="0" stop-color="#ffa1ae"></stop><stop offset="1" stop-color="#ff4565"></stop></linearGradient><linearGradient id="c"><stop offset="0" stop-color="#fe0364" stop-opacity="0"></stop><stop offset=".234" stop-color="#f90362" stop-opacity=".234"></stop><stop offset=".517" stop-color="#ea035b" stop-opacity=".517"></stop><stop offset=".824" stop-color="#d20250" stop-opacity=".824"></stop><stop offset="1" stop-color="#c00148"></stop></linearGradient><linearGradient xlink:href="#c" id="o" x1="543.714" x2="543.714" y1="-278.261" y2="-258.556" gradientTransform="rotate(-90 668.644 -7.376)" gradientUnits="userSpaceOnUse"></linearGradient><linearGradient xlink:href="#c" id="p" x1="547.307" x2="521.958" y1="-297.736" y2="-297.736" gradientTransform="rotate(-90 668.644 -7.376)" gradientUnits="userSpaceOnUse"></linearGradient><linearGradient id="q" x1="435.838" x2="474.601" y1="98.726" y2="137.488" gradientUnits="userSpaceOnUse"><stop offset="0" stop-color="#bbec6c"></stop><stop offset=".197" stop-color="#b5e665"></stop><stop offset=".48" stop-color="#a5d552"></stop><stop offset=".812" stop-color="#8abb33"></stop><stop offset="1" stop-color="#78a91f"></stop></linearGradient><linearGradient id="d"><stop offset="0" stop-color="#334c0f" stop-opacity="0"></stop><stop offset=".32" stop-color="#344c12" stop-opacity=".32"></stop><stop offset=".565" stop-color="#374a1c" stop-opacity=".565"></stop><stop offset=".786" stop-color="#3c482c" stop-opacity=".786"></stop><stop offset=".991" stop-color="#444443" stop-opacity=".991"></stop><stop offset="1" stop-color="#444"></stop></linearGradient><linearGradient xlink:href="#d" id="r" x1="543.714" x2="543.714" y1="-199.567" y2="-179.162" gradientTransform="rotate(-90 668.644 -7.376)" gradientUnits="userSpaceOnUse"></linearGradient><linearGradient xlink:href="#d" id="s" x1="543.227" x2="523.643" y1="-221.354" y2="-221.354" gradientTransform="rotate(-90 668.644 -7.376)" gradientUnits="userSpaceOnUse"></linearGradient><linearGradient id="e"><stop offset="0" stop-color="#fef0ae"></stop><stop offset="1" stop-color="#fac600"></stop></linearGradient><linearGradient xlink:href="#e" id="t" x1="16.246" x2="63.233" y1="272.623" y2="272.623" gradientUnits="userSpaceOnUse"></linearGradient><linearGradient xlink:href="#e" id="u" x1="186.48" x2="353.404" y1="75.281" y2="461.097" gradientUnits="userSpaceOnUse"></linearGradient><linearGradient id="f"><stop offset="0" stop-color="#fe9738" stop-opacity="0"></stop><stop offset="1" stop-color="#fe9738"></stop></linearGradient><linearGradient xlink:href="#f" id="v" x1="281.02" x2="281.02" y1="381.194" y2="449.073" gradientUnits="userSpaceOnUse"></linearGradient><linearGradient xlink:href="#f" id="w" x1="447.435" x2="510.504" y1="293.794" y2="293.794" gradientUnits="userSpaceOnUse"></linearGradient><path fill="url(#g)" d="M263.711 91.195v52.717c0 6.535-5.298 11.832-11.832 11.832h-52.717c-6.535 0-11.832-5.298-11.832-11.832V91.195c0-6.535 5.298-11.832 11.832-11.832h52.717c6.534-.001 11.832 5.297 11.832 11.832z" opacity="1" data-original="url(#g)"></path><path fill="url(#h)" d="M263.711 91.195v52.717c0 6.535-5.298 11.832-11.832 11.832h-52.717c-6.535 0-11.832-5.298-11.832-11.832V91.195c0-6.535 5.298-11.832 11.832-11.832h52.717c6.534-.001 11.832 5.297 11.832 11.832z" opacity="1" data-original="url(#h)"></path><path fill="url(#i)" d="M263.711 91.195v52.717c0 6.535-5.298 11.832-11.832 11.832h-52.717c-6.535 0-11.832-5.298-11.832-11.832V91.195c0-6.535 5.298-11.832 11.832-11.832h52.717c6.534-.001 11.832 5.297 11.832 11.832z" opacity="1" data-original="url(#i)"></path><path fill="url(#j)" d="M263.711 91.195v52.717c0 6.535-5.298 11.832-11.832 11.832h-52.717c-6.535 0-11.832-5.298-11.832-11.832V91.195c0-6.535 5.298-11.832 11.832-11.832h52.717c6.534-.001 11.832 5.297 11.832 11.832z" opacity="1" data-original="url(#j)" class=""></path><path fill="url(#k)" d="M340.093 91.195v52.717c0 6.535-5.298 11.832-11.832 11.832h-52.717c-6.535 0-11.832-5.298-11.832-11.832V91.195c0-6.535 5.298-11.832 11.832-11.832h52.717c6.534-.001 11.832 5.297 11.832 11.832z" opacity="1" data-original="url(#k)"></path><path fill="url(#l)" d="M340.093 91.195v52.717c0 6.535-5.298 11.832-11.832 11.832h-52.717c-6.535 0-11.832-5.298-11.832-11.832V91.195c0-6.535 5.298-11.832 11.832-11.832h52.717c6.534-.001 11.832 5.297 11.832 11.832z" opacity="1" data-original="url(#l)"></path><path fill="url(#m)" d="M340.093 91.195v52.717c0 6.535-5.298 11.832-11.832 11.832h-52.717c-6.535 0-11.832-5.298-11.832-11.832V91.195c0-6.535 5.298-11.832 11.832-11.832h52.717c6.534-.001 11.832 5.297 11.832 11.832z" opacity="1" data-original="url(#m)" class=""></path><path fill="url(#n)" d="M416.475 91.195v52.717c0 6.535-5.298 11.832-11.832 11.832h-52.717c-6.535 0-11.832-5.298-11.832-11.832V91.195c0-6.535 5.298-11.832 11.832-11.832h52.717c6.534-.001 11.832 5.297 11.832 11.832z" opacity="1" data-original="url(#n)"></path><path fill="url(#o)" d="M416.475 91.195v52.717c0 6.535-5.298 11.832-11.832 11.832h-52.717c-6.535 0-11.832-5.298-11.832-11.832V91.195c0-6.535 5.298-11.832 11.832-11.832h52.717c6.534-.001 11.832 5.297 11.832 11.832z" opacity="1" data-original="url(#o)"></path><path fill="url(#p)" d="M416.475 91.195v52.717c0 6.535-5.298 11.832-11.832 11.832h-52.717c-6.535 0-11.832-5.298-11.832-11.832V91.195c0-6.535 5.298-11.832 11.832-11.832h52.717c6.534-.001 11.832 5.297 11.832 11.832z" opacity="1" data-original="url(#p)"></path><path fill="url(#q)" d="M492.857 91.195v52.717c0 6.535-5.298 11.832-11.832 11.832h-52.717c-6.535 0-11.832-5.298-11.832-11.832V91.195c0-6.535 5.298-11.832 11.832-11.832h52.717c6.534-.001 11.832 5.297 11.832 11.832z" opacity="1" data-original="url(#q)"></path><path fill="url(#r)" d="M492.857 91.195v52.717c0 6.535-5.298 11.832-11.832 11.832h-52.717c-6.535 0-11.832-5.298-11.832-11.832V91.195c0-6.535 5.298-11.832 11.832-11.832h52.717c6.534-.001 11.832 5.297 11.832 11.832z" opacity="1" data-original="url(#r)"></path><path fill="url(#s)" d="M492.857 91.195v52.717c0 6.535-5.298 11.832-11.832 11.832h-52.717c-6.535 0-11.832-5.298-11.832-11.832V91.195c0-6.535 5.298-11.832 11.832-11.832h52.717c6.534-.001 11.832 5.297 11.832 11.832z" opacity="1" data-original="url(#s)"></path><path fill="url(#t)" d="M50.348 429.584.212 132.947c-1.539-9.105 5.478-17.408 14.713-17.408h44.274l-8.555 314.024c-.004.18-.266.199-.296.021z" opacity="1" data-original="url(#t)"></path><path fill="url(#u)" d="M190.749 86.713c0-16.525-13.396-29.921-29.92-29.921H79.96c-16.525 0-29.92 13.396-29.92 29.92v338.573c0 16.525 13.396 29.92 29.92 29.92h402.12c16.525 0 29.92-13.396 29.92-29.92V162.302c0-16.525-13.396-29.92-29.92-29.92H236.417c-25.222-.001-45.668-20.447-45.668-45.669z" opacity="1" data-original="url(#u)" class=""></path><path fill="url(#v)" d="M50.04 263.086v162.2c0 16.525 13.396 29.92 29.92 29.92h402.12c16.525 0 29.92-13.396 29.92-29.92v-162.2z" opacity="1" data-original="url(#v)"></path><path fill="url(#w)" d="M482.08 132.381H288.161v322.826H482.08c16.525 0 29.92-13.396 29.92-29.92V162.302c0-16.525-13.396-29.921-29.92-29.921z" opacity="1" data-original="url(#w)" class=""></path></g></svg>