<svg width="35" height="41" viewBox="0 0 35 41" fill="none" xmlns="http://www.w3.org/2000/svg">
  <path d="M33.7405 17.2722L12.1505 39.4723C11.5505 40.0873 10.5555 39.3747 10.9455 38.6097L18.6305 23.4447C18.6887 23.3303 18.7166 23.2028 18.7114 23.0745C18.7062 22.9462 18.6682 22.8214 18.601 22.712C18.5337 22.6026 18.4395 22.5123 18.3274 22.4498C18.2153 22.3872 18.0889 22.3545 17.9605 22.3547H1.79554C1.64789 22.3546 1.50357 22.3109 1.38065 22.2291C1.25773 22.1473 1.16169 22.0311 1.10456 21.8949C1.04743 21.7588 1.03176 21.6088 1.05951 21.4638C1.08725 21.3188 1.15718 21.1852 1.26054 21.0798L21.2855 0.792247C21.8655 0.204747 22.8305 0.849747 22.508 1.61225L16.7655 15.1497C16.7169 15.2645 16.6977 15.3896 16.7095 15.5137C16.7214 15.6378 16.764 15.7569 16.8335 15.8604C16.903 15.9639 16.9971 16.0484 17.1075 16.1063C17.2178 16.1643 17.3409 16.1938 17.4655 16.1922L33.193 15.9972C33.3415 15.9949 33.4872 16.0366 33.6119 16.1171C33.7366 16.1976 33.8346 16.3133 33.8935 16.4496C33.9524 16.5858 33.9696 16.7365 33.9428 16.8825C33.916 17.0285 33.8465 17.1633 33.743 17.2697" fill="#FF4343" />
</svg>