<svg width="40" height="41" viewBox="0 0 40 41" fill="none" xmlns="http://www.w3.org/2000/svg">
  <path fill-rule="evenodd" clip-rule="evenodd" d="M17.9159 0.552778C14.6637 0.913598 11.6349 2.00044 8.99628 3.75352C4.14238 6.97828 1.0378 11.8554 0.153262 17.645C-0.0493967 18.972 -0.0493967 22.0305 0.153262 23.3574C0.605168 26.3151 1.66099 29.0927 3.23248 31.4577C4.13933 32.8225 4.80389 33.643 5.83981 34.6772C8.9195 37.7515 12.7465 39.6793 17.0965 40.3476C18.4197 40.5508 21.4698 40.5508 22.7931 40.3476C27.1576 39.677 30.9929 37.7433 34.0669 34.663C36.0867 32.6391 37.7804 29.9859 38.7365 27.3483C39.2783 25.8538 39.8439 23.243 39.8439 22.2369C39.8439 22.0621 39.879 21.8973 39.922 21.8707C39.9693 21.8413 40 21.2683 40 20.4138C40 19.4947 39.9729 19.022 39.922 19.0536C39.8747 19.0828 39.8439 18.973 39.8439 18.7748C39.8439 18.2057 39.6154 16.8242 39.3271 15.6496C37.7522 9.23405 33.0214 3.96269 26.7729 1.66075C25.7606 1.2878 23.9828 0.836676 22.8321 0.660765C21.854 0.511148 18.8795 0.445886 17.9159 0.552778ZM28.4117 12.6305C27.6181 12.886 8.94345 20.1461 8.66237 20.3084C8.08241 20.6433 7.97557 20.926 8.29435 21.2824C8.48874 21.4998 8.79714 21.6155 11.123 22.3441C12.5588 22.7939 13.7616 23.1618 13.796 23.1618C13.8303 23.1618 16.4804 21.5068 19.6849 19.484C25.4103 15.87 25.8347 15.6283 25.9962 15.8902C26.0246 15.9364 25.9653 16.063 25.8642 16.1715C25.7631 16.28 23.6425 18.2142 21.1517 20.4699L16.623 24.571L16.4503 27.0881C16.3554 28.4725 16.2926 29.6201 16.3108 29.6384C16.3291 29.6566 16.4593 29.6462 16.6003 29.6152C16.7814 29.5753 17.1322 29.2925 17.7959 28.6516C18.3125 28.1526 18.9487 27.539 19.2096 27.288L19.6839 26.8317L22.136 28.6511C23.4845 29.6518 24.7095 30.5339 24.858 30.6114C25.4443 30.917 26.079 30.719 26.3131 30.1575C26.4865 29.7413 29.7773 14.0714 29.7773 13.6619C29.7773 13.1664 29.5936 12.7961 29.2718 12.6429C28.9662 12.4976 28.8307 12.4956 28.4117 12.6305ZM0 20.5012C0 21.2975 0.0116273 21.6231 0.0257518 21.2251C0.0399543 20.8269 0.0399543 20.1755 0.0257518 19.7774C0.0116273 19.3793 0 19.705 0 20.5012Z" fill="#26A5E5" />
</svg>