<svg xmlns="http://www.w3.org/2000/svg" version="1.1" xmlns:xlink="http://www.w3.org/1999/xlink" width="512" height="512" x="0" y="0" viewBox="0 0 512 512" style="enable-background:new 0 0 512 512" xml:space="preserve" class=""><g><linearGradient id="a"><stop offset="0" stop-color="#ffa1ae"></stop><stop offset="1" stop-color="#ff4565"></stop></linearGradient><linearGradient xlink:href="#a" id="h" x1="229.912" x2="276.498" y1="90.989" y2="90.989" gradientUnits="userSpaceOnUse"></linearGradient><linearGradient id="b"><stop offset="0" stop-color="#fe0364" stop-opacity="0"></stop><stop offset=".234" stop-color="#f90362" stop-opacity=".234"></stop><stop offset=".517" stop-color="#ea035b" stop-opacity=".517"></stop><stop offset=".824" stop-color="#d20250" stop-opacity=".824"></stop><stop offset="1" stop-color="#c00148"></stop></linearGradient><linearGradient xlink:href="#b" id="i" x1="254.436" x2="305.084" y1="94.773" y2="88.984" gradientUnits="userSpaceOnUse"></linearGradient><linearGradient xlink:href="#b" id="j" x1="256" x2="256" y1="60.228" y2="29.319" gradientUnits="userSpaceOnUse"></linearGradient><linearGradient xlink:href="#b" id="k" x1="251.03" x2="265.581" y1="-2.492" y2="130.827" gradientUnits="userSpaceOnUse"></linearGradient><linearGradient xlink:href="#b" id="l" x1="246.533" x2="270.13" y1="47.12" y2="74.649" gradientUnits="userSpaceOnUse"></linearGradient><linearGradient xlink:href="#a" id="m" x1="256" x2="256" y1="5.598" y2="29.77" gradientUnits="userSpaceOnUse"></linearGradient><linearGradient xlink:href="#b" id="n" x1="291.38" x2="313.156" y1="24.088" y2="35.089" gradientUnits="userSpaceOnUse"></linearGradient><linearGradient xlink:href="#b" id="o" x1="256" x2="256" y1="19.293" y2="34.416" gradientUnits="userSpaceOnUse"></linearGradient><linearGradient id="c"><stop offset="0" stop-color="#fef0ae"></stop><stop offset="1" stop-color="#fac600"></stop></linearGradient><linearGradient xlink:href="#c" id="p" x1="415.971" x2="469.778" y1="128.406" y2="173.145" gradientTransform="rotate(-45 428.544 184.063)" gradientUnits="userSpaceOnUse"></linearGradient><linearGradient id="d"><stop offset="0" stop-color="#fe9738" stop-opacity="0"></stop><stop offset="1" stop-color="#fe9738"></stop></linearGradient><linearGradient xlink:href="#d" id="q" x1="443.899" x2="443.899" y1="174.479" y2="193.835" gradientTransform="rotate(-45 428.544 184.063)" gradientUnits="userSpaceOnUse"></linearGradient><linearGradient xlink:href="#c" id="r" x1="69.288" x2="98.085" y1="124.062" y2="152.859" gradientUnits="userSpaceOnUse"></linearGradient><linearGradient xlink:href="#d" id="s" x1="687.913" x2="687.913" y1="418.494" y2="437.85" gradientTransform="scale(-1 1) rotate(-45 0 1218.753)" gradientUnits="userSpaceOnUse"></linearGradient><linearGradient id="e"><stop offset="0" stop-color="#b3dafe"></stop><stop offset="1" stop-color="#0182fc"></stop></linearGradient><linearGradient xlink:href="#e" id="t" x1="124.402" x2="361.797" y1="165.262" y2="402.658" gradientUnits="userSpaceOnUse"></linearGradient><linearGradient xlink:href="#e" id="u" x1="377.388" x2="116.132" y1="418.248" y2="156.993" gradientUnits="userSpaceOnUse"></linearGradient><linearGradient id="f"><stop offset="0" stop-color="#314dc9" stop-opacity="0"></stop><stop offset=".276" stop-color="#304bc4" stop-opacity=".276"></stop><stop offset=".563" stop-color="#2b45b8" stop-opacity=".563"></stop><stop offset=".854" stop-color="#243ba3" stop-opacity=".854"></stop><stop offset="1" stop-color="#1f3596"></stop></linearGradient><linearGradient xlink:href="#f" id="v" x1="256" x2="256" y1="299.583" y2="552.666" gradientUnits="userSpaceOnUse"></linearGradient><linearGradient xlink:href="#f" id="w" x1="-2025.157" x2="-2025.157" y1="623.238" y2="889.636" gradientTransform="rotate(-45 -1274.942 -2295.318)" gradientUnits="userSpaceOnUse"></linearGradient><linearGradient id="x" x1="-1961.684" x2="-1799.899" y1="-2002.544" y2="-1840.76" gradientTransform="rotate(180 -808 -808)" gradientUnits="userSpaceOnUse"><stop offset="0" stop-color="#f5fbff"></stop><stop offset="1" stop-color="#dbd5ef"></stop></linearGradient><linearGradient id="g"><stop offset="0" stop-color="#dbd5ef" stop-opacity="0"></stop><stop offset=".285" stop-color="#d9d2ee" stop-opacity=".285"></stop><stop offset=".474" stop-color="#d4c9e9" stop-opacity=".474"></stop><stop offset=".635" stop-color="#cbbae2" stop-opacity=".635"></stop><stop offset=".779" stop-color="#bfa5d7" stop-opacity=".78"></stop><stop offset=".913" stop-color="#af8aca" stop-opacity=".913"></stop><stop offset="1" stop-color="#a274bf"></stop></linearGradient><linearGradient xlink:href="#g" id="y" x1="239.226" x2="203.849" y1="247.763" y2="144.252" gradientUnits="userSpaceOnUse"></linearGradient><linearGradient xlink:href="#g" id="z" x1="183.996" x2="118.482" y1="262.292" y2="230.845" gradientUnits="userSpaceOnUse"></linearGradient><linearGradient xlink:href="#g" id="A" x1="306.966" x2="246.693" y1="330.919" y2="307.334" gradientUnits="userSpaceOnUse"></linearGradient><linearGradient xlink:href="#g" id="B" x1="341.044" x2="299.989" y1="296.775" y2="261.398" gradientUnits="userSpaceOnUse"></linearGradient><linearGradient xlink:href="#a" id="C" x1="297.859" x2="313.171" y1="238.405" y2="253.716" gradientUnits="userSpaceOnUse"></linearGradient><linearGradient xlink:href="#b" id="D" x1="283.711" x2="266.192" y1="267.283" y2="284.803" gradientUnits="userSpaceOnUse"></linearGradient><linearGradient xlink:href="#g" id="E" x1="818.474" x2="154.131" y1="568.845" y2="113.342" gradientUnits="userSpaceOnUse"></linearGradient><linearGradient xlink:href="#g" id="F" x1="712.443" x2="48.099" y1="723.49" y2="267.987" gradientUnits="userSpaceOnUse"></linearGradient><linearGradient xlink:href="#g" id="G" x1="801.809" x2="137.465" y1="593.151" y2="137.649" gradientUnits="userSpaceOnUse"></linearGradient><linearGradient xlink:href="#g" id="H" x1="729.109" x2="64.765" y1="699.183" y2="243.68" gradientUnits="userSpaceOnUse"></linearGradient><linearGradient xlink:href="#g" id="I" x1="793.197" x2="128.853" y1="605.712" y2="150.209" gradientUnits="userSpaceOnUse"></linearGradient><linearGradient xlink:href="#g" id="J" x1="737.72" x2="73.377" y1="686.623" y2="231.12" gradientUnits="userSpaceOnUse"></linearGradient><linearGradient xlink:href="#g" id="K" x1="823.447" x2="159.103" y1="561.593" y2="106.09" gradientUnits="userSpaceOnUse"></linearGradient><linearGradient xlink:href="#g" id="L" x1="707.471" x2="43.127" y1="730.742" y2="275.239" gradientUnits="userSpaceOnUse"></linearGradient><linearGradient xlink:href="#g" id="M" x1="829.547" x2="165.203" y1="552.696" y2="97.193" gradientUnits="userSpaceOnUse"></linearGradient><linearGradient xlink:href="#g" id="N" x1="701.37" x2="37.027" y1="739.639" y2="284.136" gradientUnits="userSpaceOnUse"></linearGradient><linearGradient xlink:href="#g" id="O" x1="760.487" x2="96.143" y1="653.419" y2="197.916" gradientUnits="userSpaceOnUse"></linearGradient><linearGradient xlink:href="#g" id="P" x1="770.431" x2="106.087" y1="638.916" y2="183.413" gradientUnits="userSpaceOnUse"></linearGradient><linearGradient xlink:href="#c" id="Q" x1="244.776" x2="265.024" y1="285.636" y2="305.884" gradientUnits="userSpaceOnUse"></linearGradient><linearGradient xlink:href="#d" id="R" x1="256" x2="256" y1="297.093" y2="318.679" gradientUnits="userSpaceOnUse"></linearGradient><linearGradient xlink:href="#d" id="S" x1="-2025.157" x2="-2025.157" y1="620.747" y2="643.469" gradientTransform="rotate(-45 -1274.942 -2295.318)" gradientUnits="userSpaceOnUse"></linearGradient><path fill="url(#h)" d="m304.494 51.612 4.204-25.122H203.302l4.204 25.122c5.802 34.674-1.441 65.999-18.864 89.384l-10.797 14.492h156.309l-10.797-14.492c-17.422-23.385-24.665-54.71-18.863-89.384z" opacity="1" data-original="url(#h)"></path><path fill="url(#i)" d="M323.358 140.996c-17.423-23.385-24.666-54.71-18.864-89.384l4.204-25.122h-67.76v128.999h93.217z" opacity="1" data-original="url(#i)"></path><path fill="url(#j)" d="M207.506 51.612c2.301 13.749 2.543 26.968.92 39.377h95.148c-1.623-12.409-1.381-25.628.92-39.377l4.204-25.122H203.302z" opacity="1" data-original="url(#j)"></path><path fill="url(#k)" d="M223.58 51.612c1.538 13.749 1.7 26.968.615 39.377h63.61c-1.085-12.409-.923-25.628.615-39.377l2.811-25.122H220.77z" opacity="1" data-original="url(#k)"></path><path fill="url(#l)" d="M246.677 51.612c.442 13.749.489 26.968.177 39.377h18.293c-.312-12.409-.265-25.628.177-39.377l.808-25.122h-20.263z" opacity="1" data-original="url(#l)"></path><path fill="url(#m)" d="M306.19 33.437H205.809c-7.576 0-13.717-6.141-13.717-13.717A13.716 13.716 0 0 1 202.98 6.298l7.23-1.524a222.021 222.021 0 0 1 91.578 0l7.23 1.524a13.718 13.718 0 0 1 10.888 13.422c.002 7.575-6.14 13.717-13.716 13.717z" opacity="1" data-original="url(#m)"></path><path fill="url(#n)" d="M306.19 33.437c7.576 0 13.717-6.141 13.717-13.717a13.716 13.716 0 0 0-10.888-13.422l-7.23-1.524A221.948 221.948 0 0 0 256 0v33.437z" opacity="1" data-original="url(#n)"></path><path fill="url(#o)" d="M192.092 19.719c0 7.576 6.141 13.717 13.717 13.717H306.19c7.576 0 13.717-6.141 13.717-13.717 0-3.942-1.685-7.551-4.427-10.08H196.518a13.702 13.702 0 0 0-4.426 10.08z" opacity="1" data-original="url(#o)"></path><path fill="url(#p)" d="m467.256 159.541-41.426 41.426c-5.135 5.135-13.461 5.135-18.596 0l-41.426-41.426c-5.135-5.135-5.135-13.461 0-18.596l41.426-41.426c5.135-5.135 13.461-5.135 18.596 0l41.426 41.426c5.135 5.135 5.135 13.461 0 18.596z" opacity="1" data-original="url(#p)"></path><path fill="url(#q)" d="m467.256 159.541-41.426 41.426c-5.135 5.135-13.461 5.135-18.596 0l-41.426-41.426c-5.135-5.135-5.135-13.461 0-18.596l41.426-41.426c5.135-5.135 13.461-5.135 18.596 0l41.426 41.426c5.135 5.135 5.135 13.461 0 18.596z" opacity="1" data-original="url(#q)" class=""></path><path fill="url(#r)" d="m44.744 159.541 41.426 41.426c5.135 5.135 13.461 5.135 18.596 0l41.426-41.426c5.135-5.135 5.135-13.461 0-18.596l-41.426-41.426c-5.135-5.135-13.461-5.135-18.596 0l-41.426 41.426c-5.135 5.135-5.135 13.461 0 18.596z" opacity="1" data-original="url(#r)"></path><path fill="url(#s)" d="m44.744 159.541 41.426 41.426c5.135 5.135 13.461 5.135 18.596 0l41.426-41.426c5.135-5.135 5.135-13.461 0-18.596l-41.426-41.426c-5.135-5.135-13.461-5.135-18.596 0l-41.426 41.426c-5.135 5.135-5.135 13.461 0 18.596z" opacity="1" data-original="url(#s)"></path><circle cx="256" cy="296.86" r="215.14" fill="url(#t)" opacity="1" data-original="url(#t)"></circle><circle cx="256" cy="296.86" r="173.436" fill="url(#u)" opacity="1" data-original="url(#u)" class=""></circle><path fill="url(#v)" d="M40.86 296.86C40.86 415.678 137.181 512 256 512c118.818 0 215.14-96.322 215.14-215.14 0-25.733-4.533-50.403-12.819-73.276H53.679c-8.285 22.873-12.819 47.543-12.819 73.276z" opacity="1" data-original="url(#v)"></path><path fill="url(#w)" d="M103.873 448.987c84.017 84.017 220.236 84.017 304.253 0s84.017-220.237 0-304.253c-18.196-18.196-38.846-32.435-60.878-42.749L61.124 388.109c10.314 22.032 24.553 42.682 42.749 60.878z" opacity="1" data-original="url(#w)" class=""></path><circle cx="256" cy="296.86" r="146.617" fill="url(#x)" opacity="1" data-original="url(#x)"></circle><path fill="url(#y)" d="M402.617 296.86c0-80.974-65.643-146.617-146.617-146.617S109.383 215.886 109.383 296.86c0 17.537 3.089 34.35 8.736 49.937h275.762c5.647-15.587 8.736-32.399 8.736-49.937z" opacity="1" data-original="url(#y)"></path><path fill="url(#z)" d="M359.674 193.186c-57.257-57.257-150.09-57.258-207.348 0-57.257 57.257-57.257 150.091 0 207.348 12.401 12.401 26.473 22.104 41.488 29.134l194.993-194.993c-7.029-15.015-16.732-29.088-29.133-41.489z" opacity="1" data-original="url(#z)" class=""></path><path fill="url(#A)" d="m243.025 309.836 43.591 43.591c7.146 7.146 18.822 7.444 26.021.352l.281-.281c7.092-7.199 6.794-18.875-.352-26.021l-43.591-43.591z" opacity="1" data-original="url(#A)"></path><path fill="url(#B)" d="m243.025 309.836 102.867 102.867a147.985 147.985 0 0 0 13.782-12.168c46.968-46.968 55.398-117.87 25.311-173.441l-30.398-30.398z" opacity="1" data-original="url(#B)"></path><path fill="url(#C)" d="m256 294.994-6.41-6.41 30.717-40c10.523-13.703 27.525-28.929 54.23-46.02l11.033-7.061c6.37-4.077 13.996 3.549 9.919 9.919l-7.061 11.033c-17.091 26.706-32.317 43.707-46.02 54.23l-40 30.717z" opacity="1" data-original="url(#C)"></path><path fill="url(#D)" d="m311.503 262.914-23.423-23.423c-2.907 3.103-5.501 6.136-7.772 9.093l-30.717 40 6.41 6.41 6.41 6.41 40-30.717c2.956-2.272 5.989-4.866 9.092-7.773z" opacity="1" data-original="url(#D)"></path><path fill="url(#E)" d="M256 168.102a5.153 5.153 0 0 0-5.153 5.153v19.866a5.153 5.153 0 1 0 10.306 0v-19.866a5.153 5.153 0 0 0-5.153-5.153z" opacity="1" data-original="url(#E)"></path><path fill="url(#F)" d="M256 395.447a5.153 5.153 0 0 0-5.153 5.153v19.866a5.153 5.153 0 1 0 10.306 0V400.6a5.153 5.153 0 0 0-5.153-5.153z" opacity="1" data-original="url(#F)"></path><path fill="url(#G)" d="M379.606 291.708H359.74a5.153 5.153 0 1 0 0 10.306h19.866a5.153 5.153 0 1 0 0-10.306z" opacity="1" data-original="url(#G)"></path><path fill="url(#H)" d="M157.413 296.86a5.153 5.153 0 0 0-5.153-5.153h-19.866a5.153 5.153 0 1 0 0 10.306h19.866a5.153 5.153 0 0 0 5.153-5.153z" opacity="1" data-original="url(#H)"></path><path fill="url(#I)" d="M198.659 187.238a5.152 5.152 0 1 0-8.925 5.153l9.933 17.205a5.152 5.152 0 1 0 8.925-5.153z" opacity="1" data-original="url(#I)"></path><path fill="url(#J)" d="M312.332 384.125a5.152 5.152 0 1 0-8.925 5.153l9.933 17.205a5.152 5.152 0 1 0 8.925-5.153z" opacity="1" data-original="url(#J)"></path><path fill="url(#K)" d="m348.418 249.453 17.205-9.933a5.152 5.152 0 1 0-5.153-8.925l-17.205 9.933a5.153 5.153 0 0 0 5.153 8.925z" opacity="1" data-original="url(#K)"></path><path fill="url(#L)" d="m163.582 344.268-17.205 9.933a5.153 5.153 0 0 0 5.153 8.925l17.205-9.933a5.152 5.152 0 1 0-5.153-8.925z" opacity="1" data-original="url(#L)"></path><path fill="url(#M)" d="M320.379 185.352a5.153 5.153 0 0 0-7.039 1.886l-9.933 17.205a5.153 5.153 0 0 0 8.925 5.153l9.933-17.205a5.152 5.152 0 0 0-1.886-7.039z" opacity="1" data-original="url(#M)"></path><path fill="url(#N)" d="M206.706 382.239a5.152 5.152 0 0 0-7.039 1.886l-9.933 17.205a5.153 5.153 0 0 0 8.925 5.153l9.933-17.205a5.152 5.152 0 0 0-1.886-7.039z" opacity="1" data-original="url(#N)"></path><path fill="url(#O)" d="m168.735 240.528-17.205-9.933a5.152 5.152 0 1 0-5.153 8.925l17.205 9.933a5.153 5.153 0 0 0 5.153-8.925z" opacity="1" data-original="url(#O)"></path><path fill="url(#P)" d="m365.622 354.201-17.205-9.933a5.153 5.153 0 0 0-5.153 8.925l17.205 9.933a5.152 5.152 0 1 0 5.153-8.925z" opacity="1" data-original="url(#P)"></path><circle cx="256" cy="296.86" r="18.35" fill="url(#Q)" opacity="1" data-original="url(#Q)"></circle><path fill="url(#R)" d="M237.65 296.86c0 10.134 8.215 18.35 18.35 18.35 10.134 0 18.35-8.215 18.35-18.35a18.33 18.33 0 0 0-1.093-6.25h-34.513a18.311 18.311 0 0 0-1.094 6.25z" opacity="1" data-original="url(#R)"></path><path fill="url(#S)" d="M243.025 309.836c7.166 7.166 18.784 7.166 25.95 0s7.166-18.784 0-25.95a18.318 18.318 0 0 0-5.192-3.646l-24.404 24.404a18.312 18.312 0 0 0 3.646 5.192z" opacity="1" data-original="url(#S)"></path></g></svg>