<svg xmlns="http://www.w3.org/2000/svg" version="1.1" xmlns:xlink="http://www.w3.org/1999/xlink" width="512" height="512" x="0" y="0" viewBox="0 0 512 512" style="enable-background:new 0 0 512 512" xml:space="preserve" class=""><g><linearGradient id="a"><stop offset="0" stop-color="#f89580"></stop><stop offset="1" stop-color="#c4573a"></stop></linearGradient><linearGradient xlink:href="#a" id="f" x1="57.171" x2="406.981" y1="313.044" y2="313.044" gradientUnits="userSpaceOnUse"></linearGradient><linearGradient xlink:href="#a" id="g" x1="79.262" x2="79.262" y1="217.47" y2="208.535" gradientUnits="userSpaceOnUse"></linearGradient><linearGradient xlink:href="#a" id="h" x1="117.758" x2="117.758" y1="217.47" y2="208.535" gradientUnits="userSpaceOnUse"></linearGradient><linearGradient xlink:href="#a" id="i" x1="156.253" x2="156.253" y1="217.47" y2="208.535" gradientUnits="userSpaceOnUse"></linearGradient><linearGradient xlink:href="#a" id="j" x1="194.748" x2="194.748" y1="217.47" y2="208.535" gradientUnits="userSpaceOnUse"></linearGradient><linearGradient xlink:href="#a" id="k" x1="233.243" x2="233.243" y1="217.47" y2="208.535" gradientUnits="userSpaceOnUse"></linearGradient><linearGradient xlink:href="#a" id="l" x1="271.738" x2="271.738" y1="217.47" y2="208.535" gradientUnits="userSpaceOnUse"></linearGradient><linearGradient xlink:href="#a" id="m" x1="310.233" x2="310.233" y1="217.47" y2="208.535" gradientUnits="userSpaceOnUse"></linearGradient><linearGradient xlink:href="#a" id="n" x1="348.728" x2="348.728" y1="217.47" y2="208.535" gradientUnits="userSpaceOnUse"></linearGradient><linearGradient xlink:href="#a" id="o" x1="387.223" x2="387.223" y1="217.47" y2="208.535" gradientUnits="userSpaceOnUse"></linearGradient><linearGradient xlink:href="#a" id="p" x1="425.718" x2="425.718" y1="217.47" y2="208.535" gradientUnits="userSpaceOnUse"></linearGradient><linearGradient xlink:href="#a" id="q" x1="79.262" x2="79.262" y1="491.523" y2="482.588" gradientUnits="userSpaceOnUse"></linearGradient><linearGradient xlink:href="#a" id="r" x1="117.758" x2="117.758" y1="491.523" y2="482.588" gradientUnits="userSpaceOnUse"></linearGradient><linearGradient xlink:href="#a" id="s" x1="156.253" x2="156.253" y1="491.523" y2="482.588" gradientUnits="userSpaceOnUse"></linearGradient><linearGradient xlink:href="#a" id="t" x1="194.748" x2="194.748" y1="491.523" y2="482.588" gradientUnits="userSpaceOnUse"></linearGradient><linearGradient xlink:href="#a" id="u" x1="233.243" x2="233.243" y1="491.523" y2="482.588" gradientUnits="userSpaceOnUse"></linearGradient><linearGradient xlink:href="#a" id="v" x1="271.738" x2="271.738" y1="491.523" y2="482.588" gradientUnits="userSpaceOnUse"></linearGradient><linearGradient xlink:href="#a" id="w" x1="310.233" x2="310.233" y1="491.523" y2="482.588" gradientUnits="userSpaceOnUse"></linearGradient><linearGradient xlink:href="#a" id="x" x1="348.728" x2="348.728" y1="491.523" y2="482.588" gradientUnits="userSpaceOnUse"></linearGradient><linearGradient xlink:href="#a" id="y" x1="387.223" x2="387.223" y1="491.523" y2="482.588" gradientUnits="userSpaceOnUse"></linearGradient><linearGradient xlink:href="#a" id="z" x1="425.718" x2="425.718" y1="491.523" y2="482.588" gradientUnits="userSpaceOnUse"></linearGradient><linearGradient id="b"><stop offset="0" stop-color="#c4573a" stop-opacity="0"></stop><stop offset=".235" stop-color="#be5539" stop-opacity=".235"></stop><stop offset=".539" stop-color="#ae4e35" stop-opacity=".539"></stop><stop offset=".879" stop-color="#934330" stop-opacity=".879"></stop><stop offset="1" stop-color="#883f2e"></stop></linearGradient><linearGradient xlink:href="#b" id="A" x1="378.351" x2="448.007" y1="313.044" y2="313.044" gradientUnits="userSpaceOnUse"></linearGradient><linearGradient xlink:href="#b" id="B" x1="182.918" x2="264.364" y1="49.334" y2="235.692" gradientUnits="userSpaceOnUse"></linearGradient><linearGradient xlink:href="#b" id="C" x1="336.938" x2="390.513" y1="154.419" y2="154.419" gradientUnits="userSpaceOnUse"></linearGradient><linearGradient xlink:href="#b" id="D" x1="393.075" x2="363.163" y1="154.419" y2="154.419" gradientUnits="userSpaceOnUse"></linearGradient><linearGradient xlink:href="#b" id="E" x1="252.49" x2="252.49" y1="430.757" y2="510.87" gradientUnits="userSpaceOnUse"></linearGradient><linearGradient xlink:href="#b" id="F" x1="240.235" x2="240.235" y1="145.775" y2="192.6" gradientUnits="userSpaceOnUse"></linearGradient><linearGradient xlink:href="#b" id="G" x1="405.182" x2="389.997" y1="506.871" y2="391.375" gradientUnits="userSpaceOnUse"></linearGradient><linearGradient xlink:href="#a" id="H" x1="380.963" x2="392.62" y1="297.889" y2="400.348" gradientUnits="userSpaceOnUse"></linearGradient><linearGradient xlink:href="#b" id="I" x1="384.179" x2="384.179" y1="356.828" y2="391.322" gradientUnits="userSpaceOnUse"></linearGradient><linearGradient xlink:href="#b" id="J" x1="415.162" x2="461.279" y1="343.944" y2="343.944" gradientUnits="userSpaceOnUse"></linearGradient><linearGradient xlink:href="#b" id="K" x1="389.528" x2="362.533" y1="378.962" y2="352.274" gradientUnits="userSpaceOnUse"></linearGradient><linearGradient id="L" x1="338.691" x2="366.817" y1="328.352" y2="356.478" gradientUnits="userSpaceOnUse"><stop offset="0" stop-color="#5a5a5a"></stop><stop offset="1" stop-color="#444"></stop></linearGradient><linearGradient id="c"><stop offset="0" stop-color="#433f43" stop-opacity="0"></stop><stop offset="1" stop-color="#1a1a1a"></stop></linearGradient><linearGradient xlink:href="#c" id="M" x1="354.282" x2="354.282" y1="344.266" y2="374.251" gradientUnits="userSpaceOnUse"></linearGradient><linearGradient xlink:href="#c" id="N" x1="-613.315" x2="-613.315" y1="-469.459" y2="-437.896" gradientTransform="rotate(-45 853.025 -1230.85)" gradientUnits="userSpaceOnUse"></linearGradient><linearGradient id="d"><stop offset="0" stop-color="#bbec6c"></stop><stop offset=".289" stop-color="#abdc59"></stop><stop offset=".866" stop-color="#82b32a"></stop><stop offset="1" stop-color="#78a91f"></stop></linearGradient><linearGradient xlink:href="#d" id="O" x1="218.86" x2="333.196" y1="24.873" y2="201.172" gradientUnits="userSpaceOnUse"></linearGradient><linearGradient id="e"><stop offset="0" stop-color="#334c0f" stop-opacity="0"></stop><stop offset=".32" stop-color="#344c12" stop-opacity=".32"></stop><stop offset=".565" stop-color="#374a1c" stop-opacity=".565"></stop><stop offset=".786" stop-color="#3c482c" stop-opacity=".786"></stop><stop offset=".991" stop-color="#444443" stop-opacity=".991"></stop><stop offset="1" stop-color="#444"></stop></linearGradient><linearGradient xlink:href="#e" id="P" x1="205.362" x2="209.504" y1="-40.207" y2="109.34" gradientUnits="userSpaceOnUse"></linearGradient><linearGradient xlink:href="#e" id="Q" x1="332.943" x2="337.084" y1="-43.74" y2="105.807" gradientUnits="userSpaceOnUse"></linearGradient><linearGradient xlink:href="#e" id="R" x1="137.501" x2="334.711" y1="-27.438" y2="204.12" gradientUnits="userSpaceOnUse"></linearGradient><linearGradient xlink:href="#e" id="S" x1="330.863" x2="370.245" y1="97.377" y2="97.377" gradientUnits="userSpaceOnUse"></linearGradient><linearGradient xlink:href="#e" id="T" x1="270.07" x2="270.07" y1="146.272" y2="199.214" gradientUnits="userSpaceOnUse"></linearGradient><linearGradient xlink:href="#e" id="U" x1="376.05" x2="288.163" y1="126.474" y2="126.474" gradientUnits="userSpaceOnUse"></linearGradient><linearGradient xlink:href="#d" id="V" x1="159.755" x2="254.851" y1="63.845" y2="210.477" gradientUnits="userSpaceOnUse"></linearGradient><linearGradient xlink:href="#e" id="W" x1="137.814" x2="141.956" y1="11.699" y2="161.246" gradientUnits="userSpaceOnUse"></linearGradient><linearGradient xlink:href="#e" id="X" x1="265.395" x2="269.536" y1="8.166" y2="157.713" gradientUnits="userSpaceOnUse"></linearGradient><linearGradient xlink:href="#e" id="Y" x1="96.898" x2="253.654" y1="30.154" y2="214.211" gradientUnits="userSpaceOnUse"></linearGradient><linearGradient xlink:href="#e" id="Z" x1="263.315" x2="302.697" y1="123.33" y2="123.33" gradientUnits="userSpaceOnUse"></linearGradient><linearGradient xlink:href="#e" id="aa" x1="202.522" x2="202.522" y1="165.255" y2="197.468" gradientUnits="userSpaceOnUse"></linearGradient><path fill="url(#f)" d="M424.613 194.755h-25.6v-54.19c0-14.622-11.854-26.476-26.476-26.476H94.224c-22.275 0-40.333 18.058-40.333 40.333 0 .696 0 .696 0 0v317.245c0 22.275 18.058 40.333 40.333 40.333h330.389c14.622 0 26.476-11.854 26.476-26.476V221.231c.001-14.622-11.853-26.476-26.476-26.476z" opacity="1" data-original="url(#f)" class=""></path><path fill="url(#g)" d="M87.875 218.363H70.65a4.468 4.468 0 0 1 0-8.936h17.224a4.468 4.468 0 0 1 .001 8.936z" opacity="1" data-original="url(#g)"></path><path fill="url(#h)" d="M126.37 218.363h-17.224a4.468 4.468 0 0 1 0-8.936h17.224a4.468 4.468 0 0 1 0 8.936z" opacity="1" data-original="url(#h)"></path><path fill="url(#i)" d="M164.865 218.363H147.64a4.468 4.468 0 0 1 0-8.936h17.224a4.468 4.468 0 0 1 .001 8.936z" opacity="1" data-original="url(#i)"></path><path fill="url(#j)" d="M203.36 218.363h-17.224a4.468 4.468 0 0 1 0-8.936h17.224a4.468 4.468 0 0 1 0 8.936z" opacity="1" data-original="url(#j)"></path><path fill="url(#k)" d="M241.855 218.363h-17.224a4.468 4.468 0 0 1 0-8.936h17.224a4.468 4.468 0 0 1 0 8.936z" opacity="1" data-original="url(#k)"></path><path fill="url(#l)" d="M280.35 218.363h-17.224a4.468 4.468 0 0 1 0-8.936h17.224c2.467 0 4.467 2 4.467 4.468a4.466 4.466 0 0 1-4.467 4.468z" opacity="1" data-original="url(#l)"></path><path fill="url(#m)" d="M318.845 218.363h-17.224a4.468 4.468 0 0 1 0-8.936h17.224a4.468 4.468 0 0 1 0 8.936z" opacity="1" data-original="url(#m)"></path><path fill="url(#n)" d="M357.34 218.363h-17.224a4.467 4.467 0 0 1 0-8.936h17.224a4.468 4.468 0 0 1 0 8.936z" opacity="1" data-original="url(#n)"></path><path fill="url(#o)" d="M395.836 218.363h-17.224a4.467 4.467 0 0 1 0-8.936h17.224a4.468 4.468 0 0 1 0 8.936z" opacity="1" data-original="url(#o)"></path><path fill="url(#p)" d="M434.331 218.363h-17.224a4.467 4.467 0 0 1 0-8.936h17.224c2.467 0 4.467 2 4.467 4.468s-2 4.468-4.467 4.468z" opacity="1" data-original="url(#p)"></path><path fill="url(#q)" d="M87.875 492.416H70.65a4.468 4.468 0 0 1 0-8.935h17.224a4.468 4.468 0 0 1 .001 8.935z" opacity="1" data-original="url(#q)"></path><path fill="url(#r)" d="M126.37 492.416h-17.224a4.468 4.468 0 0 1 0-8.935h17.224a4.468 4.468 0 1 1 0 8.935z" opacity="1" data-original="url(#r)"></path><path fill="url(#s)" d="M164.865 492.416H147.64a4.468 4.468 0 0 1 0-8.935h17.224a4.468 4.468 0 0 1 .001 8.935z" opacity="1" data-original="url(#s)"></path><path fill="url(#t)" d="M203.36 492.416h-17.224a4.468 4.468 0 0 1 0-8.935h17.224a4.468 4.468 0 1 1 0 8.935z" opacity="1" data-original="url(#t)" class=""></path><path fill="url(#u)" d="M241.855 492.416h-17.224a4.468 4.468 0 0 1 0-8.935h17.224a4.468 4.468 0 1 1 0 8.935z" opacity="1" data-original="url(#u)" class=""></path><path fill="url(#v)" d="M280.35 492.416h-17.224a4.468 4.468 0 0 1 0-8.935h17.224a4.467 4.467 0 0 1 0 8.935z" opacity="1" data-original="url(#v)"></path><path fill="url(#w)" d="M318.845 492.416h-17.224a4.468 4.468 0 0 1 0-8.935h17.224a4.468 4.468 0 1 1 0 8.935z" opacity="1" data-original="url(#w)"></path><path fill="url(#x)" d="M357.34 492.416h-17.224a4.467 4.467 0 0 1 0-8.935h17.224a4.468 4.468 0 1 1 0 8.935z" opacity="1" data-original="url(#x)"></path><path fill="url(#y)" d="M395.836 492.416h-17.224a4.467 4.467 0 0 1 0-8.935h17.224a4.468 4.468 0 1 1 0 8.935z" opacity="1" data-original="url(#y)"></path><path fill="url(#z)" d="M434.331 492.416h-17.224a4.467 4.467 0 0 1 0-8.935h17.224a4.467 4.467 0 0 1 0 8.935z" opacity="1" data-original="url(#z)"></path><path fill="url(#A)" d="M424.613 194.755h-25.6v-54.19c0-14.622-11.854-26.476-26.476-26.476H199.355V512h225.258c14.622 0 26.476-11.854 26.476-26.476V221.231c.001-14.622-11.853-26.476-26.476-26.476z" opacity="1" data-original="url(#A)"></path><path fill="url(#B)" d="M399.013 194.755H94.224c-22.275 0-40.333-18.058-40.333-40.333s18.058-40.333 40.333-40.333h278.312c14.623 0 26.476 11.854 26.476 26.476v54.19z" opacity="1" data-original="url(#B)"></path><path fill="url(#C)" d="M399.011 140.567v54.182h-98.887V114.09h72.41c14.626 0 26.477 11.851 26.477 26.477z" opacity="1" data-original="url(#C)"></path><path fill="url(#D)" d="M399.011 140.567v54.182h-98.887V114.09h72.41c14.626 0 26.477 11.851 26.477 26.477z" opacity="1" data-original="url(#D)"></path><path fill="url(#E)" d="M53.891 373.87v97.796c0 22.275 18.058 40.333 40.333 40.333h330.389c14.622 0 26.476-11.854 26.476-26.476V373.87z" opacity="1" data-original="url(#E)"></path><path fill="url(#F)" d="M81.456 165.586c0 16.098 13.05 29.149 29.148 29.15l288.409.019v-54.19c0-1.408-.142-2.78-.354-4.128H110.606c-16.099-.001-29.15 13.05-29.15 29.149z" opacity="1" data-original="url(#F)"></path><path fill="url(#G)" d="M325.781 379.497 446.584 500.3a26.353 26.353 0 0 0 4.505-14.777V379.497z" opacity="1" data-original="url(#G)"></path><path fill="url(#H)" d="M447.372 392.412h-88.654c-26.768 0-48.468-21.7-48.468-48.468s21.7-48.468 48.468-48.468h88.654c5.93 0 10.737 4.807 10.737 10.737v75.464c0 5.928-4.807 10.735-10.737 10.735z" opacity="1" data-original="url(#H)"></path><path fill="url(#I)" d="M312.742 328.605a48.388 48.388 0 0 0-2.492 15.338c0 26.768 21.7 48.468 48.468 48.468h88.654c5.93 0 10.737-4.807 10.737-10.737v-53.07H312.742z" opacity="1" data-original="url(#I)"></path><path fill="url(#J)" d="M447.372 295.475H376.51v96.937h70.862c5.93 0 10.737-4.807 10.737-10.737v-75.464c0-5.929-4.807-10.736-10.737-10.736z" opacity="1" data-original="url(#J)"></path><path fill="url(#K)" d="M366.703 392.412h72.095l-66.492-66.492-36.047 36.047z" opacity="1" data-original="url(#K)"></path><circle cx="354.282" cy="343.944" r="25.489" fill="url(#L)" opacity="1" data-original="url(#L)"></circle><path fill="url(#M)" d="M328.793 343.944c0 14.077 11.412 25.489 25.489 25.489s25.489-11.412 25.489-25.489c0-3.049-.537-5.972-1.519-8.682h-47.941a25.456 25.456 0 0 0-1.518 8.682z" opacity="1" data-original="url(#M)"></path><path fill="url(#N)" d="M336.259 361.967c9.954 9.954 26.093 9.954 36.047 0s9.954-26.093 0-36.047a25.429 25.429 0 0 0-7.213-5.065l-33.9 33.9a25.462 25.462 0 0 0 5.066 7.212z" opacity="1" data-original="url(#N)"></path><path fill="url(#O)" d="M364.192 194.755H175.948V18.352C175.948 8.216 184.164 0 194.3 0h151.54c10.135 0 18.352 8.216 18.352 18.352z" opacity="1" data-original="url(#O)"></path><circle cx="207.315" cy="30.293" r="14.955" fill="url(#P)" opacity="1" data-original="url(#P)"></circle><circle cx="334.993" cy="30.293" r="14.955" fill="url(#Q)" opacity="1" data-original="url(#Q)"></circle><path fill="url(#R)" d="M337.618 64.904v129.845H202.532V64.903c0-4.301 3.121-7.866 7.341-8.7a28.16 28.16 0 0 0 14.515-7.768 28.235 28.235 0 0 0 7.758-14.482c.813-4.075 4.463-6.96 8.618-6.96h58.613c4.158 0 7.808 2.889 8.62 6.967a28.204 28.204 0 0 0 7.752 14.476 28.228 28.228 0 0 0 14.528 7.768c4.22.833 7.341 4.398 7.341 8.7z" opacity="1" data-original="url(#R)"></path><path fill="url(#S)" d="M345.84 0h-78.937v194.755h97.289V18.352C364.192 8.216 355.976 0 345.84 0z" opacity="1" data-original="url(#S)"></path><path fill="url(#T)" d="M175.948 62.182h188.244v132.572H175.948z" opacity="1" data-original="url(#T)"></path><path fill="url(#U)" d="M292.114 194.755h72.078v-64.484l-72.078-72.078z" opacity="1" data-original="url(#U)"></path><path fill="url(#V)" d="M296.644 194.755H108.4V70.257c0-10.135 8.216-18.352 18.352-18.352h151.541c10.135 0 18.352 8.216 18.352 18.352v124.498z" opacity="1" data-original="url(#V)"></path><circle cx="139.766" cy="82.199" r="14.955" fill="url(#W)" opacity="1" data-original="url(#W)"></circle><circle cx="267.445" cy="82.199" r="14.955" fill="url(#X)" opacity="1" data-original="url(#X)"></circle><path fill="url(#Y)" d="M270.07 116.809v77.939H134.984v-77.939c0-4.301 3.121-7.866 7.341-8.7a28.16 28.16 0 0 0 14.515-7.768 28.235 28.235 0 0 0 7.758-14.482c.813-4.075 4.463-6.96 8.618-6.96h58.613c4.158 0 7.808 2.889 8.619 6.967a28.204 28.204 0 0 0 7.752 14.476 28.228 28.228 0 0 0 14.528 7.768c4.221.833 7.342 4.398 7.342 8.699z" opacity="1" data-original="url(#Y)"></path><path fill="url(#Z)" d="M278.292 51.906h-78.937v142.849h97.289V70.257c0-10.135-8.217-18.351-18.352-18.351z" opacity="1" data-original="url(#Z)"></path><path fill="url(#aa)" d="M108.4 114.088h188.244v80.667H108.4z" opacity="1" data-original="url(#aa)" class=""></path></g></svg>