<svg width="45" height="45" viewBox="0 0 45 45" fill="none" xmlns="http://www.w3.org/2000/svg">
  <path fill-rule="evenodd" clip-rule="evenodd" d="M20.6823 0.0277506C18.5306 0.270888 17.1976 0.538674 15.6172 1.04528C10.1495 2.79804 5.6008 6.52988 2.78978 11.5691C1.46442 13.9451 0.529372 16.7977 0.126242 19.6952C-0.026688 20.7945 -0.026688 24.2299 0.126242 25.3291C0.838479 30.4482 2.99828 34.8571 6.53971 38.4214C10.0621 41.9665 14.5268 44.1712 19.6288 44.885C20.725 45.0383 24.1511 45.0383 25.2473 44.885C34.0131 43.6586 41.052 37.8341 43.7738 29.5545C44.3504 27.8006 44.8244 25.4798 44.8244 24.4106C44.8244 24.1952 44.8639 23.9946 44.9122 23.9647C44.9651 23.9318 45 23.3165 45 22.4138C45 21.4385 44.9695 20.9362 44.9122 20.9717C44.8586 21.0049 44.8244 20.8697 44.8244 20.6241C44.8244 19.6076 44.3169 17.0652 43.8029 15.507C42.1851 10.6023 39.0291 6.49141 34.6722 3.61337C32.033 1.87003 28.9851 0.71086 25.6863 0.196063C24.8132 0.0597934 21.4114 -0.0546451 20.6823 0.0277506ZM20.814 11.3725C16.0618 12.1215 12.4256 15.6362 11.4937 20.381C11.308 21.3263 11.2876 23.3399 11.4544 24.2728C11.6039 25.1098 11.9316 26.1783 12.2644 26.9137L12.5233 27.4859L11.9499 30.2867C11.6346 31.8271 11.3766 33.2023 11.3766 33.3426C11.3766 33.8588 11.4926 33.8505 14.5496 33.1168C16.096 32.7455 17.4468 32.4626 17.5513 32.488C17.6558 32.5134 18.1166 32.6807 18.5753 32.8597C19.8491 33.3571 20.853 33.54 22.3503 33.5477C23.8033 33.5552 24.5649 33.4418 25.824 33.0303C27.5811 32.456 29.0693 31.548 30.3103 30.293C34.5555 26.0001 34.6585 19.1527 30.5439 14.7669C28.0703 12.1302 24.316 10.8205 20.814 11.3725ZM20.9456 13.8047C20.1834 13.9396 18.8261 14.4385 18.1225 14.8423C16.724 15.6452 15.4872 16.9277 14.7427 18.3473C13.9712 19.8183 13.7038 21.0473 13.7706 22.8159C13.8252 24.2634 14.0417 25.1309 14.6566 26.3659L15.0388 27.1337L14.6859 28.8727C14.4917 29.8291 14.3492 30.6279 14.3691 30.6478C14.389 30.6677 15.1636 30.5021 16.0904 30.2797L17.7756 29.8756L18.6534 30.2896C20.107 30.9752 20.6449 31.0883 22.4381 31.0856C24.227 31.0829 24.8027 30.963 26.1885 30.3047C28.4491 29.231 30.073 27.318 30.8394 24.8258C31.0615 24.1035 31.0771 23.9457 31.0771 22.4242C31.0771 20.9024 31.0616 20.7449 30.8392 20.022C30.3856 18.5467 29.655 17.3233 28.59 16.2554C27.4739 15.1363 26.1315 14.3601 24.6328 13.9676C23.784 13.7452 21.7817 13.6568 20.9456 13.8047ZM18.1325 17.3656C16.993 18.3203 16.6173 19.3893 16.9387 20.7623C17.24 22.0496 17.9078 23.1453 19.2294 24.5213C20.7162 26.0691 22.3464 27.1671 23.8427 27.6285C24.6752 27.8852 26.0653 27.9111 26.5939 27.6798C27.4016 27.3263 28.4078 26.1907 28.4078 25.6325C28.4078 25.1123 28.1481 24.938 26.7828 24.5417C26.1064 24.3454 25.4849 24.1847 25.4018 24.1847C25.3188 24.1847 24.9893 24.4224 24.6696 24.7129C23.9629 25.3551 23.7667 25.3799 23.0087 24.9233C21.9037 24.2576 20.0951 22.5467 19.7698 21.8592C19.5855 21.4698 19.6319 21.2967 20.08 20.7015C20.3102 20.3959 20.4189 20.1606 20.4189 19.9681C20.4189 19.5703 19.4772 17.4382 19.2075 17.2255C18.8811 16.968 18.5568 17.0102 18.1325 17.3656ZM0 22.5122C0 23.3595 0.0131684 23.7061 0.0293217 23.2824C0.0453872 22.8588 0.0453872 22.1655 0.0293217 21.7419C0.0131684 21.3183 0 21.6649 0 22.5122Z" fill="#4FCD5D" />
</svg>